:FULLY-SPECIFIED
:FORCE-ALL-JOINTS-BE-3DOF
:DEGREES
849
root 3.86617 16.3134 28.1588 -9.40899 7.00034 -0.588765
lfemur -22.6745 0.8841 -17.4783
ltibia 37.1252 -0 0
lfoot -7.40073 -13.2299 0.000881027
ltoes 2.84716 -0 0
rfemur -35.2441 -3.20921 1.05626
rtibia 103.961 -0 0
rfoot 35.8031 20.3376 0.117841
rtoes -3.85262 0 0
lowerback 4.27681 2.95187 -2.83015
upperback 1.0962 3.81629 0.278086
thorax -1.45546 1.9169 1.68391
lowerneck -6.2887 -3.75825 2.48439
upperneck 9.01674 -5.44006 1.39408
head 4.04155 -2.53316 -0.268586
lclavicle -0 0 0
lhumerus -50.3385 -10.5732 84.1254
lradius 55.6503 -0 0
lwrist 20.9757 0 0
lhand -2.82488 3.55391 0.00189121
lfingers 0 -0 0
lthumb 22.8815 32.2107 -2.76823e-05
rclavicle -0 0 0
rhumerus -38.8555 14.4575 -66.6176
rradius 51.0224 -0 0
rwrist 9.15592 0 0
rhand -36.0054 -32.6255 0.00269798
rfingers 0 -0 0
rthumb -9.11482 -62.4032 0.00190653
850
root 3.87366 16.3242 28.2496 -10.0924 8.05413 -0.439844
lfemur -21.694 1.23921 -17.892
ltibia 37.0693 -0 0
lfoot -7.41468 -14.436 0.0014686
ltoes 4.48166 -0 0
rfemur -38.4529 -2.84311 1.23491
rtibia 103.925 -0 0
rfoot 34.5305 18.5704 0.196496
rtoes -3.11021 0 0
lowerback 5.14999 2.55831 -3.13213
upperback 1.40881 3.25041 0.140991
thorax -1.5903 1.63416 1.73474
lowerneck -6.22098 -3.732 2.47602
upperneck 8.94749 -5.41335 1.53536
head 4.00856 -2.51542 -0.216558
lclavicle -0 0 0
lhumerus -49.2691 -11.4673 83.7712
lradius 55.4963 -0 0
lwrist 21.2084 0 0
lhand -2.2888 3.62128 0.00315212
lfingers 0 -0 0
lthumb 23.3955 32.2096 -4.61383e-05
rclavicle -0 0 0
rhumerus -39.7988 13.4406 -65.7384
rradius 51.07 -0 0
rwrist 8.70857 0 0
rhand -35.3752 -32.5437 0.00449682
rfingers 0 -0 0
rthumb -8.50654 -62.3433 0.00317767
851
root 3.88115 16.3351 28.3403 -10.7749 9.10959 -0.303249
lfemur -20.7159 1.60134 -18.2997
ltibia 37.0133 -0 0
lfoot -7.42864 -15.6422 0.00176244
ltoes 6.11617 -0 0
rfemur -41.6596 -2.4676 1.39272
rtibia 103.89 -0 0
rfoot 33.2561 16.8018 0.235852
rtoes -2.36781 0 0
lowerback 6.02498 2.1694 -3.43998
upperback 1.72262 2.68529 0.000877028
thorax -1.72538 1.35153 1.78622
lowerneck -6.15327 -3.70575 2.46769
upperneck 8.8783 -5.38648 1.67659
head 3.9756 -2.49765 -0.164542
lclavicle -0 0 0
lhumerus -48.1906 -12.3547 83.3989
lradius 55.3424 -0 0
lwrist 21.441 0 0
lhand -1.75272 3.68867 0.0037826
lfingers 0 -0 0
lthumb 23.9095 32.2086 -5.53668e-05
rclavicle -0 0 0
rhumerus -40.7542 12.4381 -64.8457
rradius 51.1176 -0 0
rwrist 8.26123 0 0
rhand -34.745 -32.4619 0.0053963
rfingers 0 -0 0
rthumb -7.89826 -62.2834 0.00381328
852
root 3.88865 16.3459 28.431 -11.457 10.1666 -0.179008
lfemur -19.7403 1.97037 -18.7012
ltibia 36.9573 -0 0
lfoot -7.44259 -16.8484 0.00176244
ltoes 7.75068 -0 0
rfemur -44.8644 -2.08386 1.52922
rtibia 103.855 -0 0
rfoot 31.9811 15.0328 0.235852
rtoes -1.62541 0 0
lowerback 6.90184 1.78524 -3.75368
upperback 2.03769 2.12094 -0.142274
thorax -1.86069 1.06903 1.83837
lowerneck -6.08556 -3.67948 2.45938
upperneck 8.80918 -5.35943 1.81779
head 3.94264 -2.47985 -0.112536
lclavicle -0 0 0
lhumerus -47.1024 -13.2351 83.0082
lradius 55.1884 -0 0
lwrist 21.6736 0 0
lhand -1.21664 3.75605 0.0037826
lfingers 0 -0 0
lthumb 24.4234 32.2076 -5.53668e-05
rclavicle -0 0 0
rhumerus -41.7218 11.4503 -63.9393
rradius 51.1653 -0 0
rwrist 7.81389 0 0
rhand -34.1147 -32.3802 0.0053963
rfingers 0 -0 0
rthumb -7.28997 -62.2236 0.00381328
853
root 3.89614 16.3568 28.5217 -12.1392 11.225 -0.0671698
lfemur -18.7671 2.34617 -19.0965
ltibia 36.9013 -0 0
lfoot -7.45655 -18.0546 0.0014686
ltoes 9.38519 -0 0
rfemur -48.0676 -1.69309 1.64401
rtibia 103.82 -0 0
rfoot 30.7067 13.2642 0.196496
rtoes -0.883006 0 0
lowerback 7.78063 1.40592 -4.07316
upperback 2.35406 1.55739 -0.288481
thorax -1.99625 0.786658 1.89118
lowerneck -6.01785 -3.65321 2.45111
upperneck 8.74013 -5.33221 1.95894
head 3.90971 -2.46202 -0.0605406
lclavicle -0 0 0
lhumerus -46.0039 -14.1081 82.5989
lradius 55.0345 -0 0
lwrist 21.9062 0 0
lhand -0.680565 3.82344 0.00315212
lfingers 0 -0 0
lthumb 24.9374 32.2066 -4.61383e-05
rclavicle -0 0 0
rhumerus -42.7021 10.4777 -63.0191
rradius 51.2129 -0 0
rwrist 7.36655 0 0
rhand -33.4845 -32.2984 0.00449682
rfingers 0 -0 0
rthumb -6.68169 -62.1637 0.00317767
854
root 3.90363 16.3676 28.6125 -12.8218 12.2846 0.0321963
lfemur -17.7961 2.72861 -19.4855
ltibia 36.8454 -0 0
lfoot -7.4705 -19.2607 0.000881027
ltoes 11.0197 -0 0
rfemur -51.2694 -1.29653 1.73677
rtibia 103.784 -0 0
rfoot 29.4341 11.4969 0.117841
rtoes -0.140604 0 0
lowerback 8.6614 1.03156 -4.39837
upperback 2.6718 0.994664 -0.437767
thorax -2.13206 0.504408 1.94465
lowerneck -5.95015 -3.62692 2.44287
upperneck 8.67116 -5.30483 2.10006
head 3.87679 -2.44416 -0.00855656
lclavicle -0 0 0
lhumerus -44.8947 -14.9733 82.1707
lradius 54.8805 -0 0
lwrist 22.1389 0 0
lhand -0.144486 3.89081 0.00189121
lfingers 0 -0 0
lthumb 25.4514 32.2055 -2.76823e-05
rclavicle -0 0 0
rhumerus -43.6951 9.5208 -62.0849
rradius 51.2605 -0 0
rwrist 6.9192 0 0
rhand -32.8543 -32.2166 0.00269798
rfingers 0 -0 0
rthumb -6.07341 -62.1038 0.00190653
855
root 3.91112 16.3785 28.7032 -13.5055 13.3453 360.119
lfemur -16.8275 3.11758 -19.868
ltibia 36.7894 0 0
lfoot -7.48443 -20.4669 0
ltoes 12.6542 0 0
rfemur -54.4701 -0.895408 1.80721
rtibia 103.749 0 0
rfoot 28.1646 9.73185 0
rtoes 0.601799 0 0
lowerback 9.5442 0.662239 -4.72927
upperback 2.99097 0.432771 -0.590153
thorax -2.26813 0.222285 1.99879
lowerneck -5.88246 -3.60063 2.43466
upperneck 8.60225 -5.27727 2.24114
head 3.84389 -2.42627 0.0434165
lclavicle -8.19987e-15 4.77083e-15 0
lhumerus -43.7742 -15.8302 81.7234
lradius 54.7266 0 0
lwrist 22.3715 0 0
lhand 0.391591 3.95817 0
lfingers 7.12502 0 0
lthumb 25.9654 32.2045 0
rclavicle -8.19987e-15 4.77083e-15 0
rhumerus -44.7012 8.58011 -61.1365
rradius 51.3081 0 0
rwrist 6.47186 0 0
rhand -32.2241 -32.1349 0
rfingers 7.12502 0 0
rthumb -5.46513 -782.044 0
856
root 3.92281 16.4085 28.7762 -13.7261 14.0024 -0.0413987
lfemur -16.2431 3.5236 -19.7968
ltibia 36.4265 -0 0
lfoot -7.0751 -21.3611 -0.0191824
ltoes 14.1832 -0 0
rfemur -55.1443 -0.909133 2.23811
rtibia 97.5662 -0 0
rfoot 25.3627 8.30287 0.211566
rtoes 0.163379 -0 0
lowerback 10.022 0.368579 -4.67205
upperback 3.16169 0.0257026 -0.651036
thorax -2.32588 0.020102 1.96067
lowerneck -5.95808 -3.56636 2.42712
upperneck 8.53557 -5.24354 2.37144
head 3.83977 -2.40442 0.0883997
lclavicle -0 0 0
lhumerus -42.76 -16.6387 81.6274
lradius 54.8176 -0 0
lwrist 22.4344 0 0
lhand 1.34938 4.01321 0.0027628
lfingers 0 -0 0
lthumb 26.8799 32.1004 -0.00498825
rclavicle -0 0 0
rhumerus -45.3692 7.38052 -60.0891
rradius 51.4029 -0 0
rwrist 5.6963 0 0
rhand -29.5217 -31.7747 0.0513101
rfingers 0 -0 0
rthumb -2.8563 -61.638 0.0558179
857
root 3.9345 16.4385 28.8491 -13.9492 14.6588 -0.204881
lfemur -15.658 3.92887 -19.7214
ltibia 36.0635 -0 0
lfoot -6.66552 -22.2555 -0.0319739
ltoes 15.7122 -0 0
rfemur -55.8185 -0.917787 2.66915
rtibia 91.3834 -0 0
rfoot 22.5564 6.86523 0.352967
rtoes -0.275041 0 0
lowerback 10.4994 0.0744519 -4.61729
upperback 3.33284 -0.381182 -0.713133
thorax -2.3835 -0.182119 1.92275
lowerneck -6.0337 -3.53211 2.41954
upperneck 8.46896 -5.20966 2.50169
head 3.83568 -2.38256 0.133381
lclavicle -0 0 0
lhumerus -41.7401 -17.4455 81.516
lradius 54.9087 -0 0
lwrist 22.4973 0 0
lhand 2.30718 4.0683 0.00460509
lfingers 0 -0 0
lthumb 27.7945 31.9963 -0.00831446
rclavicle -0 0 0
rhumerus -46.0575 6.19329 -59.0302
rradius 51.4977 -0 0
rwrist 4.92074 0 0
rhand -26.819 -31.4126 0.0855816
rfingers 0 -0 0
rthumb -0.247142 -61.2298 0.0930959
858
root 3.94619 16.4685 28.9221 -14.175 15.3147 -0.371515
lfemur -15.072 4.33335 -19.6418
ltibia 35.7006 -0 0
lfoot -6.25579 -23.1499 -0.0383705
ltoes 17.2412 -0 0
rfemur -56.4929 -0.921369 3.10026
rtibia 85.2006 -0 0
rfoot 19.7474 5.42237 0.423776
rtoes -0.713461 0 0
lowerback 10.9766 -0.220121 -4.56497
upperback 3.50444 -0.78788 -0.77645
thorax -2.44099 -0.384379 1.88504
lowerneck -6.10933 -3.49786 2.41191
upperneck 8.40244 -5.17562 2.63189
head 3.83159 -2.3607 0.178359
lclavicle -0 0 0
lhumerus -40.7138 -18.2502 81.389
lradius 54.9997 -0 0
lwrist 22.5602 0 0
lhand 3.26498 4.1234 0.00552637
lfingers 0 -0 0
lthumb 28.709 31.8921 -0.00997778
rclavicle -0 0 0
rhumerus -46.7662 5.01896 -57.9593
rradius 51.5925 -0 0
rwrist 4.14518 0 0
rhand -24.1161 -31.0492 0.102737
rfingers 0 -0 0
rthumb 2.36222 -60.8204 0.111755
859
root 3.95787 16.4985 28.9951 -14.4034 15.9699 -0.54137
lfemur -14.4851 4.737 -19.558
ltibia 35.3377 -0 0
lfoot -5.84602 -24.0443 -0.0383705
ltoes 18.7702 -0 0
rfemur -57.1672 -0.919877 3.53138
rtibia 79.0178 -0 0
rfoot 16.9375 3.97778 0.423776
rtoes -1.15188 0 0
lowerback 11.4536 -0.515119 -4.51512
upperback 3.67652 -1.19439 -0.840992
thorax -2.49835 -0.586676 1.84753
lowerneck -6.18495 -3.46363 2.40424
upperneck 8.336 -5.14144 2.76204
head 3.82753 -2.33884 0.223335
lclavicle -0 0 0
lhumerus -39.6808 -19.0526 81.2461
lradius 55.0907 -0 0
lwrist 22.623 0 0
lhand 4.22277 4.17852 0.00552637
lfingers 0 -0 0
lthumb 29.6236 31.7878 -0.00997778
rclavicle -0 0 0
rhumerus -47.4958 3.85811 -56.8756
rradius 51.6874 -0 0
rwrist 3.36961 0 0
rhand -21.4132 -30.6854 0.102737
rfingers 0 -0 0
rthumb 4.97165 -60.4106 0.111755
860
root 3.96956 16.5285 29.0681 -14.6347 16.6244 -0.714519
lfemur -13.8973 5.13977 -19.4701
ltibia 34.9748 -0 0
lfoot -5.43629 -24.9387 -0.0319739
ltoes 20.2992 -0 0
rfemur -57.8415 -0.913313 3.96246
rtibia 72.835 -0 0
rfoot 14.1285 2.53492 0.352967
rtoes -1.5903 0 0
lowerback 11.9303 -0.810522 -4.46771
upperback 3.84908 -1.6007 -0.906767
thorax -2.55557 -0.78901 1.81021
lowerneck -6.26058 -3.4294 2.39652
upperneck 8.26964 -5.10711 2.89215
head 3.82348 -2.31697 0.26831
lclavicle -0 0 0
lhumerus -38.6406 -19.8525 81.0872
lradius 55.1817 -0 0
lwrist 22.6859 0 0
lhand 5.18057 4.23362 0.00460509
lfingers 0 -0 0
lthumb 30.5381 31.6836 -0.00831446
rclavicle -0 0 0
rhumerus -48.2463 2.7113 -55.7784
rradius 51.7822 -0 0
rwrist 2.59405 0 0
rhand -18.7103 -30.322 0.0855816
rfingers 0 -0 0
rthumb 7.58101 -60.0012 0.0930959
861
root 3.98125 16.5585 29.141 -14.8688 17.2782 -0.891036
lfemur -13.3085 5.54162 -19.3779
ltibia 34.6118 -0 0
lfoot -5.02671 -25.8331 -0.0191824
ltoes 21.8282 -0 0
rfemur -58.5157 -0.901677 4.39342
rtibia 66.6522 -0 0
rfoot 11.3221 1.09728 0.211566
rtoes -2.02872 0 0
lowerback 12.4068 -1.10631 -4.42276
upperback 4.02215 -2.0068 -0.973781
thorax -2.61267 -0.991382 1.7731
lowerneck -6.33621 -3.39519 2.38876
upperneck 8.20336 -5.07262 3.02221
head 3.81945 -2.2951 0.313281
lclavicle -0 0 0
lhumerus -37.5926 -20.6495 80.912
lradius 55.2728 -0 0
lwrist 22.7488 0 0
lhand 6.13837 4.28871 0.0027628
lfingers 0 -0 0
lthumb 31.4527 31.5795 -0.00498825
rclavicle -0 0 0
rhumerus -49.0181 1.57915 -54.6671
rradius 51.877 -0 0
rwrist 1.81849 0 0
rhand -16.0076 -29.9599 0.0513101
rfingers 0 -0 0
rthumb 10.1902 -59.593 0.0558179
